HIERARCHY
ROOT mixamorig_Hips
{
	OFFSET 0.00 0.00 0.00
	CHANNELS 6 Xposition Yposition Zposition Zrotation Yrotation Xrotation
	JOINT mixamorig_Spine
	{
		OFFSET	0.0125	10.4452	-0.9963
		CHANNELS 3 Zrotation Yrotation Xrotation
		JOINT mixamorig_Spine1
		{
			OFFSET	0.0145	12.1861	-1.1623
			CHANNELS 3 Zrotation Yrotation Xrotation
			JOINT mixamorig_Spine2
			{
				OFFSET	0.0166	13.9270	-1.3284
				CHANNELS 3 Zrotation Yrotation Xrotation
				JOINT mixamorig_Neck
				{
					OFFSET	0.0187	15.6679	-1.4944
					CHANNELS 3 Zrotation Yrotation Xrotation
					JOINT mixamorig_Head
					{
						OFFSET	-0.0000	7.0878	0.8887
						CHANNELS 3 Zrotation Yrotation Xrotation
						End Site
						{
							OFFSET -0.0000 21.3244 2.6737
						}
					}
				}
				JOINT mixamorig_LeftShoulder
				{
					OFFSET	6.2331	12.5732	-1.4620
					CHANNELS 3 Zrotation Yrotation Xrotation
					JOINT mixamorig_LeftArm
					{
						OFFSET	12.4288	-6.1895	0.0647
						CHANNELS 3 Zrotation Yrotation Xrotation
						JOINT mixamorig_LeftForeArm
						{
							OFFSET	12.5822	-17.6989	-0.0651
							CHANNELS 3 Zrotation Yrotation Xrotation
							JOINT mixamorig_LeftHand
							{
								OFFSET	10.9147	-21.0687	11.6035
								CHANNELS 3 Zrotation Yrotation Xrotation
								JOINT mixamorig_LeftHandThumb1
								{
									OFFSET	-1.7358	-3.6666	2.6651
									CHANNELS 3 Zrotation Yrotation Xrotation
									JOINT mixamorig_LeftHandThumb2
									{
										OFFSET	-1.3886	-2.9333	2.1321
										CHANNELS 3 Zrotation Yrotation Xrotation
										JOINT mixamorig_LeftHandThumb3
										{
											OFFSET	-1.7918	-3.3945	1.6896
											CHANNELS 3 Zrotation Yrotation Xrotation
											End Site
											{
												OFFSET -1.1716 -2.6948 1.2270
											}
										}
									}
								}
								JOINT mixamorig_LeftHandIndex1
								{
									OFFSET	1.2042	-11.6606	7.5887
									CHANNELS 3 Zrotation Yrotation Xrotation
									JOINT mixamorig_LeftHandIndex2
									{
										OFFSET	-0.0885	-2.2672	1.0042
										CHANNELS 3 Zrotation Yrotation Xrotation
										JOINT mixamorig_LeftHandIndex3
										{
											OFFSET	-0.3002	-1.9399	0.5096
											CHANNELS 3 Zrotation Yrotation Xrotation
											End Site
											{
												OFFSET -0.2176 -2.6233 0.6157
											}
										}
									}
								}
								JOINT mixamorig_LeftHandMiddle1
								{
									OFFSET	3.0635	-12.2364	5.5160
									CHANNELS 3 Zrotation Yrotation Xrotation
									JOINT mixamorig_LeftHandMiddle2
									{
										OFFSET	0.4236	-2.6124	0.6959
										CHANNELS 3 Zrotation Yrotation Xrotation
										JOINT mixamorig_LeftHandMiddle3
										{
											OFFSET	-0.0346	-2.2988	0.2871
											CHANNELS 3 Zrotation Yrotation Xrotation
											End Site
											{
												OFFSET 0.2796 -2.9102 0.5104
											}
										}
									}
								}
								JOINT mixamorig_LeftHandRing1
								{
									OFFSET	4.3250	-12.3373	2.7720
									CHANNELS 3 Zrotation Yrotation Xrotation
									JOINT mixamorig_LeftHandRing2
									{
										OFFSET	0.0343	-2.6042	-0.1448
										CHANNELS 3 Zrotation Yrotation Xrotation
										JOINT mixamorig_LeftHandRing3
										{
											OFFSET	-0.4080	-2.1150	-0.2682
											CHANNELS 3 Zrotation Yrotation Xrotation
											End Site
											{
												OFFSET -0.1807 -2.8052 -0.0224
											}
										}
									}
								}
								JOINT mixamorig_LeftHandPinky1
								{
									OFFSET	4.5316	-12.9281	-0.0800
									CHANNELS 3 Zrotation Yrotation Xrotation
									JOINT mixamorig_LeftHandPinky2
									{
										OFFSET	-0.2254	-1.6990	-0.6318
										CHANNELS 3 Zrotation Yrotation Xrotation
										JOINT mixamorig_LeftHandPinky3
										{
											OFFSET	-0.4223	-1.3628	-0.4724
											CHANNELS 3 Zrotation Yrotation Xrotation
											End Site
											{
												OFFSET -0.7253 -1.5757 -0.7080
											}
										}
									}
								}
							}
						}
					}
				}
				JOINT mixamorig_RightShoulder
				{
					OFFSET	-6.1994	12.5731	-1.5268
					CHANNELS 3 Zrotation Yrotation Xrotation
					JOINT mixamorig_RightArm
					{
						OFFSET	-12.4361	-6.1894	-0.0647
						CHANNELS 3 Zrotation Yrotation Xrotation
						JOINT mixamorig_RightForeArm
						{
							OFFSET	-12.5822	-17.6989	0.1601
							CHANNELS 3 Zrotation Yrotation Xrotation
							JOINT mixamorig_RightHand
							{
								OFFSET	-10.9147	-21.0687	11.5252
								CHANNELS 3 Zrotation Yrotation Xrotation
								JOINT mixamorig_RightHandThumb1
								{
									OFFSET	1.8326	-3.8313	2.8102
									CHANNELS 3 Zrotation Yrotation Xrotation
									JOINT mixamorig_RightHandThumb2
									{
										OFFSET	1.4660	-3.0650	2.2481
										CHANNELS 3 Zrotation Yrotation Xrotation
										JOINT mixamorig_RightHandThumb3
										{
											OFFSET	1.7022	-3.2799	1.5927
											CHANNELS 3 Zrotation Yrotation Xrotation
											End Site
											{
												OFFSET 0.9222 -2.4964 1.2260
											}
										}
									}
								}
								JOINT mixamorig_RightHandIndex1
								{
									OFFSET	-1.2113	-11.6910	7.5909
									CHANNELS 3 Zrotation Yrotation Xrotation
									JOINT mixamorig_RightHandIndex2
									{
										OFFSET	0.1340	-2.2478	1.0804
										CHANNELS 3 Zrotation Yrotation Xrotation
										JOINT mixamorig_RightHandIndex3
										{
											OFFSET	0.2833	-1.9852	0.4907
											CHANNELS 3 Zrotation Yrotation Xrotation
											End Site
											{
												OFFSET 0.2347 -2.6272 0.4660
											}
										}
									}
								}
								JOINT mixamorig_RightHandMiddle1
								{
									OFFSET	-3.1183	-12.4952	5.5338
									CHANNELS 3 Zrotation Yrotation Xrotation
									JOINT mixamorig_RightHandMiddle2
									{
										OFFSET	-0.3657	-2.5472	0.7803
										CHANNELS 3 Zrotation Yrotation Xrotation
										JOINT mixamorig_RightHandMiddle3
										{
											OFFSET	0.0506	-2.2906	0.2557
											CHANNELS 3 Zrotation Yrotation Xrotation
											End Site
											{
												OFFSET -0.1704 -2.9156 0.4516
											}
										}
									}
								}
								JOINT mixamorig_RightHandRing1
								{
									OFFSET	-4.3615	-12.5986	2.8743
									CHANNELS 3 Zrotation Yrotation Xrotation
									JOINT mixamorig_RightHandRing2
									{
										OFFSET	0.0394	-2.4666	-0.2159
										CHANNELS 3 Zrotation Yrotation Xrotation
										JOINT mixamorig_RightHandRing3
										{
											OFFSET	0.4323	-2.1153	-0.2184
											CHANNELS 3 Zrotation Yrotation Xrotation
											End Site
											{
												OFFSET 0.0751 -2.6586 -0.0626
											}
										}
									}
								}
								JOINT mixamorig_RightHandPinky1
								{
									OFFSET	-4.4132	-11.5032	0.4194
									CHANNELS 3 Zrotation Yrotation Xrotation
									JOINT mixamorig_RightHandPinky2
									{
										OFFSET	-0.1665	-2.1237	-0.7208
										CHANNELS 3 Zrotation Yrotation Xrotation
										JOINT mixamorig_RightHandPinky3
										{
											OFFSET	0.5102	-1.7553	-0.6317
											CHANNELS 3 Zrotation Yrotation Xrotation
											End Site
											{
												OFFSET 0.3407 -2.2265 -0.9448
											}
										}
									}
								}
							}
						}
					}
				}
			}
		}
	}
	JOINT mixamorig_LeftUpLeg
	{
		OFFSET	10.1286	-5.8029	-0.5827
		CHANNELS 3 Zrotation Yrotation Xrotation
		JOINT mixamorig_LeftLeg
		{
			OFFSET	4.2353	-40.9156	0.1368
			CHANNELS 3 Zrotation Yrotation Xrotation
			JOINT mixamorig_LeftFoot
			{
				OFFSET	2.7471	-36.6710	-5.9597
				CHANNELS 3 Zrotation Yrotation Xrotation
				JOINT mixamorig_LeftToeBase
				{
					OFFSET	2.4527	-12.3426	15.4410
					CHANNELS 3 Zrotation Yrotation Xrotation
					End Site
					{
						OFFSET 1.4532 0.2140 7.5769
					}
				}
			}
		}
	}
	JOINT mixamorig_RightUpLeg
	{
		OFFSET	-10.0150	-5.8029	-0.7207
		CHANNELS 3 Zrotation Yrotation Xrotation
		JOINT mixamorig_RightLeg
		{
			OFFSET	-4.2353	-40.9157	0.2580
			CHANNELS 3 Zrotation Yrotation Xrotation
			JOINT mixamorig_RightFoot
			{
				OFFSET	-2.7471	-36.6708	-6.0475
				CHANNELS 3 Zrotation Yrotation Xrotation
				JOINT mixamorig_RightToeBase
				{
					OFFSET	-2.4527	-12.3428	15.3607
					CHANNELS 3 Zrotation Yrotation Xrotation
					End Site
					{
						OFFSET -1.4532 0.2139 7.5074
					}
				}
			}
		}
	}
}
MOTION
Frames: 9
Frame Time: 0.0333333
5.2277 134.0384 8.3046 -0.8797 -7.4818 -31.8914 -0.3892 0.1191 0.5470 0.7661 0.1531 2.2287 0.7813 0.1469 2.2256 5.0517 -0.1555 -19.2179 -7.0919 -0.9498 -10.2987 39.9326 -7.2967 -3.4676 -3.6521 -7.4051 -94.8688 9.0199 -9.0318 -19.2548 -98.7124 48.1870 -78.9885 -2.2601 -23.7761 -1.6985 4.6532 9.4078 0.0994 -2.0422 2.6462 -1.4171 9.0558 4.0477 3.2076 -12.2546 -4.1766 4.2020 -13.1557 -3.2199 5.4054 -0.5540 -1.4598 -5.8891 -10.1249 -1.2699 4.3664 -16.2209 -0.8016 8.9735 7.6073 -0.0268 -23.9534 -8.5946 0.6795 7.5236 -17.2547 1.4341 12.2409 16.7607 3.8762 -37.2858 -12.8708 2.7843 8.9894 -3.3907 0.9231 1.1726 -19.6996 4.6014 -0.9203 0.5446 41.5154 -78.8195 -24.5654 25.7380 -67.9494 -136.3803 -82.8056 133.9210 -1.6356 14.5943 5.4347 -10.2137 30.7226 6.5948 2.7368 18.8580 4.7085 31.7296 -0.0501 38.3922 20.6862 6.3687 10.3274 15.6406 3.0883 7.2143 42.6598 -1.0936 29.7003 18.1145 1.7132 9.3695 18.2077 0.2324 12.3509 34.5529 2.6396 7.6689 17.1540 -2.3839 17.6481 23.6495 -2.7367 13.4684 40.3896 4.9662 -5.5861 9.1227 -2.9534 15.7341 20.3201 -7.6689 4.2066 6.2001 21.4403 -2.1399 4.4767 14.9012 47.9515 7.6185 -1.3153 8.6942 0.0000 -0.0000 0.0000 -10.8212 -11.2847 -10.7339 -0.1754 7.9322 16.7397 -2.2475 2.2619 -2.5252 0.0000 -0.0000 -0.0000 
6.8118 133.4619 8.8118 -1.2787 -5.2564 -28.5224 0.9218 -1.1066 0.4236 2.5599 -1.9565 1.4818 2.5919 -1.9404 1.4551 0.6520 0.6691 -21.9588 -7.3028 1.5892 -10.4446 44.7442 -4.2326 -2.6208 5.6462 5.9355 -105.6728 7.8059 3.3078 4.5998 -112.9654 37.1101 -90.3176 -1.0333 -24.3158 5.6051 11.4525 10.1950 10.2316 1.2975 3.2481 3.2262 7.9774 3.6200 3.8915 -14.8868 -4.8902 6.2165 -14.4878 -3.4649 6.3973 -1.6991 -1.7671 -5.1444 -12.9249 -1.3870 6.1070 -17.6209 -0.7357 9.8291 6.4804 -0.4368 -23.2602 -11.3952 1.1373 9.0936 -18.6525 1.7059 13.0014 15.6757 3.3609 -36.6656 -15.5631 3.7319 10.4285 -4.7808 1.2195 1.9495 -27.5436 5.5987 -1.7530 1.0831 44.4661 -83.4146 -24.2943 25.6287 -67.3242 -111.6944 -82.2292 112.6744 -0.9295 13.3432 4.8616 -6.1349 32.1480 5.5495 4.5052 19.6840 3.8970 31.1738 0.0493 37.9593 24.4040 6.8970 13.6980 17.4806 3.2853 8.8089 42.1111 -0.9139 29.2940 21.9739 1.4746 12.2383 20.1280 0.0102 13.7348 33.9769 2.7602 7.2409 20.9420 -3.5405 20.0825 25.5629 -3.2254 14.6921 39.7973 5.1296 -6.0007 12.7891 -4.8688 17.8329 22.2129 -8.4567 5.1692 2.2325 20.7439 -2.5788 2.2754 17.1147 39.9219 5.7800 -0.0886 11.3955 0.0000 0.0000 -0.0000 -12.2221 -12.0581 -14.9115 -0.3766 8.1030 15.4164 -2.0751 4.9241 -1.7924 0.0000 0.0000 0.0000 
8.1537 133.1172 9.1370 -1.0640 -4.5478 -24.8926 2.4636 -2.4057 0.8986 4.1836 -3.9064 1.1795 4.1938 -3.9236 1.0904 -2.8361 1.2588 -23.8439 -6.9681 4.3697 -12.4994 48.7398 -0.5804 -0.8932 31.2735 23.5497 -87.4578 10.3809 12.4739 23.1274 -133.9569 31.3852 -90.7720 -0.0115 -24.0474 9.3985 13.9753 9.7716 15.1970 2.5132 3.2479 5.5697 -3.2853 0.0281 11.2792 -21.5763 -6.2608 11.3877 -17.8367 -3.9757 8.9008 -13.5972 -4.0215 2.7608 -19.9297 -1.3066 10.4658 -21.1153 -0.4799 11.9590 -5.2955 -3.8008 -15.7647 -18.3372 2.6110 12.9068 -22.1314 2.4655 14.8725 4.3078 -1.1821 -29.8239 -22.2015 6.3847 13.8273 -8.2387 2.0420 3.8589 -33.0820 6.0348 -2.3445 -4.7517 46.9340 -93.9493 -24.4651 25.6980 -67.7184 -94.5077 -77.6440 97.9800 -0.1766 12.0445 4.1944 -0.8473 34.9006 5.3372 7.4692 21.1595 3.1657 32.9814 -0.2900 39.3657 29.7755 7.2713 18.5756 20.1251 3.4781 11.1028 43.8938 -1.5135 30.6109 27.4704 0.7989 16.3049 22.8685 -0.3885 15.7026 35.8494 2.3517 8.6302 26.2866 -5.4694 23.4319 28.2867 -3.9957 16.4163 41.7216 4.5819 -4.6569 17.9382 -7.8350 20.6293 24.9078 -9.6390 6.5048 -2.7219 19.6942 -1.5243 -0.6465 16.7006 28.2695 4.7856 4.6666 14.2431 0.0000 0.0000 -0.0000 -12.8287 -12.7587 -18.7909 -0.7652 8.2362 12.7303 -2.0740 8.7770 -0.5474 0.0000 -0.0000 0.0000 
9.6842 132.2065 9.3723 -1.4338 -4.5167 -22.2948 3.6456 -2.8080 1.1391 4.9255 -4.2252 0.9969 4.9086 -4.2770 0.8709 -3.2168 1.3990 -25.0402 -7.6973 4.9618 -14.3159 50.9805 1.7061 0.4051 44.7161 25.3088 -72.2067 10.4011 12.5164 23.2207 -149.5839 44.2975 -99.6357 0.9323 -23.1841 11.9292 12.4672 7.5590 17.8124 1.7614 2.2630 7.0261 -37.1994 -1.3466 34.6667 -22.9330 -6.4625 12.4435 -18.5109 -4.0605 9.4063 -48.2661 -0.9737 26.0126 -21.3324 -1.2265 11.3367 -21.8147 -0.4130 12.3839 -40.5691 -4.0610 7.7157 -19.7176 2.9612 13.6489 -22.8261 2.6314 15.2421 -30.6888 -5.4566 -6.7467 -23.5171 6.9626 14.4725 -8.9289 2.2206 4.2357 -33.3614 4.4946 -1.8825 -10.8505 47.5754 -101.5491 -24.1204 25.5569 -66.9217 -94.7521 -79.0431 96.9931 0.6014 10.7298 3.4541 -3.5710 33.7573 4.3931 5.8185 20.5861 2.9983 31.2158 0.0419 37.9921 33.9363 7.2486 22.3560 22.1719 3.5544 12.8795 42.1526 -0.9273 29.3248 31.6743 0.0133 19.3904 24.9749 -0.7604 17.2082 34.0205 2.7512 7.2733 30.3460 -7.1656 25.8955 30.3757 -4.6459 17.7230 39.8421 5.1174 -5.9693 21.8409 -10.2883 22.6135 26.9766 -10.5938 7.5002 -5.7206 17.6050 0.9166 -3.5958 15.1222 17.3000 5.7310 9.8289 16.5288 0.0000 0.0000 -0.0000 -12.3494 -12.8819 -21.4535 -0.9685 7.9210 10.5770 -2.0191 11.8144 -0.2639 0.0000 0.0000 0.0000 
11.0618 131.1048 9.3586 -2.7846 -3.5001 -20.3837 4.4642 -2.3357 0.9320 4.8902 -3.4175 0.5541 4.8646 -3.4728 0.4437 -1.8831 1.2286 -25.8288 -8.8511 3.3815 -14.7717 52.2840 0.6096 -0.1534 29.3887 26.0874 -89.5453 9.9616 11.5451 21.1132 -162.6514 45.2361 -134.2576 1.8020 -21.8617 13.7241 5.4598 1.1279 21.2216 -1.5891 -0.9054 9.2553 -49.1056 1.5109 42.6808 -23.3245 -6.5160 12.7485 -18.7053 -4.0838 9.5521 -60.0310 3.3614 33.3361 -21.7362 -1.1994 11.5872 -22.0161 -0.3927 12.5062 -52.8137 -0.7136 15.5449 -20.1144 3.0654 13.8612 -23.0261 2.6800 15.3482 -43.2545 -3.4798 1.5536 -23.8952 7.1318 14.6560 -9.1275 2.2730 4.3439 -31.2812 2.0737 -1.0168 -13.2706 48.1996 -104.1955 -23.3263 25.2108 -65.0698 -107.1062 -81.8369 107.5864 1.3833 9.4292 2.6650 -11.4098 30.7921 4.5732 2.2326 19.0135 3.5792 28.4440 0.4749 35.8283 34.6927 7.2152 23.0431 22.5446 3.5615 13.2031 39.4088 -0.0911 27.2826 32.4344 -0.1538 19.9452 25.3571 -0.8340 17.4807 31.1456 3.2877 5.1298 31.0782 -7.4927 26.3314 30.7545 -4.7693 17.9583 36.8805 5.8666 -8.0545 22.5449 -10.7487 22.9577 27.3519 -10.7713 7.6779 -6.4725 15.1736 2.5340 -5.4420 14.0121 10.8982 6.2996 12.2223 17.8998 -0.0000 0.0000 -0.0000 -11.3556 -12.4776 -22.4415 -1.1530 7.9491 9.1928 -2.2230 12.1562 -0.0258 0.0000 0.0000 0.0000 
12.2324 130.1166 9.0962 -4.1080 -0.8310 -18.4799 4.5189 -2.2806 0.8150 4.4441 -3.4242 0.1424 4.3982 -3.4874 0.0395 -0.5651 0.9876 -26.1754 -8.4017 1.8799 -17.1290 52.7084 -2.3440 -1.6597 17.9038 25.6473 -97.5103 9.1276 9.3537 16.5194 -152.3279 41.8118 -137.9527 2.5684 -20.1733 14.9300 3.1210 -4.5327 19.4659 -2.5570 -3.8663 8.6725 -47.3681 0.9837 41.5332 -21.7612 -6.2898 11.5315 -17.9287 -3.9877 8.9697 -58.3221 2.6261 32.3082 -20.1212 -1.2969 10.5848 -21.2108 -0.4710 12.0170 -51.0315 -1.3135 14.4336 -18.5258 2.6577 13.0086 -22.2263 2.4878 14.9231 -41.4150 -3.8862 0.3557 -22.3813 6.4627 13.9161 -8.3330 2.0661 3.9105 -30.3485 1.6081 -0.8364 -13.8922 48.1707 -105.5349 -22.4694 24.8033 -63.0437 -114.5580 -81.6997 116.1721 2.1480 8.1719 1.8549 -11.3973 30.8464 4.3475 2.2401 19.0543 3.4466 28.6864 0.4414 36.0177 32.8121 7.2816 21.3346 21.6185 3.5401 12.3991 39.6492 -0.1601 27.4622 30.5424 0.2480 18.5623 24.4065 -0.6544 16.8026 31.3971 3.2452 5.3178 29.2548 -6.6901 25.2408 29.8124 -4.4655 17.3721 37.1400 5.8056 -7.8711 20.7919 -9.6121 22.0926 26.4185 -10.3323 7.2344 -6.4924 13.8079 3.6132 -6.9960 13.1654 6.2581 6.6761 12.2919 19.6044 -0.0000 -0.0000 0.0000 -10.7839 -12.2208 -22.3819 -1.2523 7.9853 8.4669 -2.1653 12.0855 1.0319 -0.0000 -0.0000 -0.0000 
13.2508 129.2541 8.8041 -5.0487 1.7934 -16.1622 4.6910 -2.4959 0.7628 4.0255 -3.6234 -0.1560 3.9533 -3.6988 -0.2513 0.1268 0.6557 -26.4806 -6.7784 0.2471 -22.0645 52.4883 -3.1796 -2.0068 20.4165 29.5647 -95.2016 9.1283 9.3557 16.5236 -150.5784 42.7710 -132.3599 3.2200 -18.2362 15.6669 2.2256 -5.2736 14.6769 -3.0053 -4.4429 6.2575 -46.6066 0.7646 41.0275 -19.6299 -5.9269 9.8766 -16.8668 -3.8432 8.1744 -57.5726 2.3148 31.8530 -17.9072 -1.3845 9.2082 -20.1069 -0.5671 11.3454 -50.2499 -1.5644 13.9428 -16.3415 2.1380 11.8237 -21.1288 2.2344 14.3367 -40.6093 -4.0515 -0.1713 -20.2972 5.5784 12.8760 -7.2425 1.7926 3.3124 -31.1930 2.2429 -1.0522 -13.5519 46.7907 -107.1049 -22.1151 24.6240 -62.1966 -111.0442 -83.7189 113.4725 2.8743 6.9858 1.0549 -12.5621 30.2096 3.8286 1.7346 18.7696 3.1522 27.6398 0.5806 35.1990 32.4238 7.2883 20.9818 21.4274 3.5340 12.2332 38.6101 0.1323 26.6849 30.1508 0.3251 18.2754 24.2101 -0.6188 16.6624 30.3106 3.4227 4.5051 28.8771 -6.5289 25.0129 29.6177 -4.4040 17.2506 36.0187 6.0631 -8.6649 20.4288 -9.3809 21.9101 26.2257 -10.2426 7.1420 -6.5143 13.6003 2.7509 -7.4901 12.8288 4.8061 6.8114 11.8006 19.8466 0.0000 -0.0000 -0.0000 -10.0287 -12.0514 -22.5916 -0.9758 7.7261 7.8851 -1.5374 12.7735 2.0760 -0.0000 0.0000 0.0000 
14.0178 128.5615 8.6989 -5.7656 3.4760 -13.3638 5.5635 -2.3916 0.6739 3.4334 -2.9838 -0.4740 3.3510 -3.0670 -0.5430 0.8915 0.4891 -27.0408 -6.7219 -1.5017 -26.6860 54.6880 -1.4983 -1.1340 26.5223 33.4378 -90.6677 9.3617 10.0267 17.9092 -156.0496 41.6908 -131.1698 3.7573 -16.1829 16.0398 -1.6969 -4.6351 10.6847 -4.9735 -4.3334 4.2424 -42.6735 -0.2518 38.3913 -18.9592 -5.7995 9.3570 -16.5319 -3.7945 7.9238 -53.6930 0.8144 29.4582 -17.2074 -1.4012 8.7727 -19.7579 -0.5947 11.1329 -46.2084 -2.7438 11.3737 -15.6494 1.9833 11.4454 -20.7817 2.1567 14.1505 -36.4535 -4.7815 -2.9087 -19.6362 5.3069 12.5411 -6.8975 1.7085 3.1224 -30.4677 1.0889 -0.6627 -14.8823 46.0212 -110.3147 -22.2553 24.6957 -62.5326 -119.1407 -86.7847 120.4533 3.5408 5.8973 0.2991 -16.5411 28.3415 3.7741 -0.0275 17.8560 3.1786 25.9099 0.7773 33.8437 33.8051 7.2534 22.2368 22.1073 3.5530 12.8234 36.8882 0.5834 25.3919 31.5423 0.0416 19.2940 24.9086 -0.7478 17.1609 28.5133 3.6815 3.1578 30.2188 -7.1095 25.8195 30.3100 -4.6247 17.6821 34.1609 6.4538 -9.9853 21.7187 -10.2088 22.5533 26.9115 -10.5631 7.4693 -6.2877 13.3941 0.8846 -7.5294 12.7840 4.8915 6.8098 12.6692 18.5583 0.0000 -0.0000 -0.0000 -8.6378 -11.5870 -23.1309 -0.8368 7.2309 7.3028 -0.9125 13.2333 1.8537 0.0000 0.0000 -0.0000 
14.6090 128.0397 8.8333 -6.2275 5.0701 -10.8079 6.5454 -2.2799 0.5046 2.4084 -2.4766 -0.8233 2.3196 -2.5560 -0.8453 2.8551 0.7713 -27.5340 -8.2675 -2.2404 -29.2130 59.6859 -0.0601 -0.3936 30.5824 35.3193 -85.9748 9.6861 10.8799 19.6968 -158.9727 37.6544 -129.9221 4.1904 -14.1548 16.1516 -3.8303 -5.0116 10.0372 -6.0107 -4.5928 3.9493 -39.9862 -0.8355 36.5699 -21.0246 -6.1715 10.9590 -17.5621 -3.9395 8.6950 -51.0334 -0.1072 27.7822 -19.3577 -1.3332 10.1102 -20.8301 -0.5056 11.7856 -43.4422 -3.4375 9.5887 -17.7734 2.4733 12.6020 -21.8479 2.3992 14.7213 -33.6204 -5.1621 -4.7902 -21.6638 6.1534 13.5608 -7.9571 1.9704 3.7047 -25.7835 -0.2578 -0.1198 -18.4728 45.5262 -113.6340 -22.1006 24.6165 -62.1619 -155.0630 -87.2860 155.9335 4.1256 4.9313 -0.3760 -18.1855 27.7773 4.3261 -0.7650 17.5460 3.5445 25.5912 0.8090 33.5937 33.6368 7.2593 22.0839 22.0244 3.5511 12.7515 36.5704 0.6622 25.1526 31.3731 0.0775 19.1702 24.8235 -0.7318 17.1003 28.1819 3.7246 2.9090 30.0557 -7.0377 25.7219 30.2258 -4.5975 17.6297 33.8180 6.5210 -10.2296 21.5618 -10.1072 22.4758 26.8280 -10.5239 7.4296 -5.6682 12.5838 -0.1037 -7.6194 12.7024 4.8497 7.2788 14.5131 16.5692 -0.0000 0.0000 -0.0000 -7.1880 -10.8475 -22.6287 -1.2831 6.9550 6.8528 -0.3129 13.2663 2.0976 0.0000 -0.0000 -0.0000 
